<?xml version="1.0" encoding="UTF-8"?>
<!DOCTYPE svg PUBLIC "-//W3C//DTD SVG 1.1//EN" "http://www.w3.org/Graphics/SVG/1.1/DTD/svg11.dtd">
<svg xmlns="http://www.w3.org/2000/svg" version="1.1" width="110px" height="55px" style="shape-rendering:geometricPrecision; text-rendering:geometricPrecision; image-rendering:optimizeQuality; fill-rule:evenodd; clip-rule:evenodd" xmlns:xlink="http://www.w3.org/1999/xlink">
<g><path style="opacity:1" fill="#f9f9f9" d="M 106.5,21.5 C 108.609,24.5438 108.943,27.8772 107.5,31.5C 93.4737,38.1805 79.4737,44.8471 65.5,51.5C 64.5233,48.7131 64.19,45.7131 64.5,42.5C 74.03,38.0048 83.3634,33.3381 92.5,28.5C 94.7453,28.4588 95.4119,27.6255 94.5,26C 84.2866,21.3919 74.2866,16.5586 64.5,11.5C 64.1826,8.42814 64.5159,5.42814 65.5,2.5C 79.0792,9.12438 92.7459,15.4577 106.5,21.5 Z"/></g>
<g><path style="opacity:0.867" fill="#595959" d="M 62.5,-0.5 C 63.1667,-0.5 63.8333,-0.5 64.5,-0.5C 79.1667,6.83333 93.8333,14.1667 108.5,21.5C 107.833,21.5 107.167,21.5 106.5,21.5C 92.7459,15.4577 79.0792,9.12438 65.5,2.5C 64.5159,5.42814 64.1826,8.42814 64.5,11.5C 63.8333,11.5 63.1667,11.5 62.5,11.5C 62.5,7.5 62.5,3.5 62.5,-0.5 Z"/></g>
<g><path style="opacity:1" fill="#636363" d="M 41.5,12.5 C 44.5,12.5 47.5,12.5 50.5,12.5C 50.1667,13.1667 49.8333,13.8333 49.5,14.5C 46.8333,14.5 44.1667,14.5 41.5,14.5C 41.5,13.8333 41.5,13.1667 41.5,12.5 Z"/></g>
<g><path style="opacity:0.649" fill="#131313" d="M 62.5,11.5 C 63.1667,11.5 63.8333,11.5 64.5,11.5C 74.2866,16.5586 84.2866,21.3919 94.5,26C 95.4119,27.6255 94.7453,28.4588 92.5,28.5C 92.5,28.1667 92.5,27.8333 92.5,27.5C 82.3743,22.3512 72.3743,17.0179 62.5,11.5 Z"/></g>
<g><path style="opacity:1" fill="#f9f9f9" d="M 33.5,29.5 C 35.4672,29.7394 37.3005,29.4061 39,28.5C 40.9736,24.0492 41.807,19.3825 41.5,14.5C 44.1667,14.5 46.8333,14.5 49.5,14.5C 49.9695,23.4787 47.3029,31.312 41.5,38C 35.0978,40.8117 29.5978,39.645 25,34.5C 22.6469,29.8193 19.3135,26.1526 15,23.5C 12.6794,24.4872 11.0128,26.1539 10,28.5C 9.50137,32.1516 9.3347,35.8183 9.5,39.5C 6.83333,39.5 4.16667,39.5 1.5,39.5C 0.543051,31.9499 2.04305,24.9499 6,18.5C 10.5569,14.3241 15.7235,13.4907 21.5,16C 25.6346,20.4784 29.6346,24.9784 33.5,29.5 Z"/></g>
<g><path style="opacity:0.271" fill="#181818" d="M 41.5,12.5 C 41.5,13.1667 41.5,13.8333 41.5,14.5C 41.807,19.3825 40.9736,24.0492 39,28.5C 37.3005,29.4061 35.4672,29.7394 33.5,29.5C 33.5,28.8333 33.5,28.1667 33.5,27.5C 35.2741,28.881 36.7741,28.5477 38,26.5C 38.8363,21.6222 40.003,16.9556 41.5,12.5 Z"/></g>
<g><path style="opacity:0.188" fill="#393939" d="M 33.5,27.5 C 33.5,28.1667 33.5,28.8333 33.5,29.5C 29.6346,24.9784 25.6346,20.4784 21.5,16C 15.7235,13.4907 10.5569,14.3241 6,18.5C 2.04305,24.9499 0.543051,31.9499 1.5,39.5C 0.526933,37.0521 0.1936,34.3854 0.5,31.5C 0.079378,20.9584 4.91271,14.6251 15,12.5C 18.5526,12.6835 21.7193,13.8502 24.5,16C 27.6404,19.8118 30.6404,23.6451 33.5,27.5 Z"/></g>
<g><path style="opacity:1" fill="#3c3c3c" d="M 92.5,27.5 C 92.5,27.8333 92.5,28.1667 92.5,28.5C 83.3634,33.3381 74.03,38.0048 64.5,42.5C 63.5206,45.6248 63.1872,48.9581 63.5,52.5C 63.5,53.1667 63.1667,53.5 62.5,53.5C 62.203,49.2325 62.5363,45.0659 63.5,41C 72.948,35.9415 82.6147,31.4415 92.5,27.5 Z"/></g>
<g><path style="opacity:0.927" fill="#161616" d="M 50.5,12.5 C 52.1581,22.2429 49.8248,31.0762 43.5,39C 39.0057,41.8329 34.339,42.1662 29.5,40C 24.6544,35.1544 19.821,30.321 15,25.5C 12.6971,26.7507 11.3638,28.7507 11,31.5C 10.5017,34.8168 10.335,38.1501 10.5,41.5C 6.83333,41.5 3.16667,41.5 -0.5,41.5C -0.5,38.1667 -0.5,34.8333 -0.5,31.5C -0.166667,31.5 0.166667,31.5 0.5,31.5C 0.1936,34.3854 0.526933,37.0521 1.5,39.5C 4.16667,39.5 6.83333,39.5 9.5,39.5C 9.3347,35.8183 9.50137,32.1516 10,28.5C 11.0128,26.1539 12.6794,24.4872 15,23.5C 19.3135,26.1526 22.6469,29.8193 25,34.5C 29.5978,39.645 35.0978,40.8117 41.5,38C 47.3029,31.312 49.9695,23.4787 49.5,14.5C 49.8333,13.8333 50.1667,13.1667 50.5,12.5 Z"/></g>
<g><path style="opacity:0.534" fill="#131313" d="M 106.5,21.5 C 107.167,21.5 107.833,21.5 108.5,21.5C 108.833,21.5 109.167,21.5 109.5,21.5C 109.5,25.1667 109.5,28.8333 109.5,32.5C 94.3123,39.5945 79.3123,46.9278 64.5,54.5C 63.8333,54.5 63.1667,54.5 62.5,54.5C 62.5,54.1667 62.5,53.8333 62.5,53.5C 63.1667,53.5 63.5,53.1667 63.5,52.5C 64.4916,52.6716 65.1583,52.3382 65.5,51.5C 79.4737,44.8471 93.4737,38.1805 107.5,31.5C 108.943,27.8772 108.609,24.5438 106.5,21.5 Z"/></g>
<g><path style="opacity:1" fill="#999999" d="M 64.5,42.5 C 64.19,45.7131 64.5233,48.7131 65.5,51.5C 65.1583,52.3382 64.4916,52.6716 63.5,52.5C 63.1872,48.9581 63.5206,45.6248 64.5,42.5 Z"/></g>
</svg>
